<svg width="32" height="32" xmlns="http://www.w3.org/2000/svg">
 <!-- Created with Method Draw - http://github.com/duopixel/Method-Draw/ -->

 <g>
  <title>background</title>
  <rect fill="none" id="canvas_background" height="34" width="34" y="-1" x="-1"/>
  <g display="none" overflow="visible" y="0" x="0" height="100%" width="100%" id="canvasGrid">
   <rect fill="url(#gridpattern)" stroke-width="0" y="0" x="0" height="100%" width="100%"/>
  </g>
 </g>
 <g>
  <title>Layer 1</title>
  <g id="svg_75">
   <g transform="matrix(0.6451509323460982,0,0,0.6451509323460982,0,0) " id="svg_5">
    <g id="svg_6">
     <path id="svg_7" d="m25.499981,33.249977c-4.600006,0 -8.399992,-3.000002 -8.69998,-8.699984c-0.200012,-5.300018 4.399992,-8.900023 8.799986,-8.999999c5.100006,-0.100006 8.10001,5.699981 8.10001,5.699981l13.100006,-4.899994c0,0 -5.400024,-14.100005 -20.000004,-14.100005c-13.600004,0 -22.999998,9.5 -22.999998,22.399993c0,11.500002 8.899994,22.900026 22.69998,22.400026c15.200016,-0.600006 20.399998,-14 20.399998,-14l-13.299988,-4.30002c0,0 -2.799992,4.500002 -8.10001,4.500002" fill="#3DAA53"/>
    </g>
    <g id="svg_8">
     <path id="svg_9" d="m25.699993,48.049995c-6.399994,0 -12.300016,-2.600006 -16.499998,-7.300018c-3.899994,-4.299988 -6.100006,-10.100008 -6.100006,-16.000002c0,-6.5 2.399994,-12.399993 6.600006,-16.600005c4.299988,-4.299988 10.399992,-6.599976 17.19998,-6.599976c7.800022,0 13.000004,4 16.10001,7.299988c3.200012,3.600006 4.600006,7.100006 4.700012,7.299987l0.299988,0.700012l-14.500004,5.399994l-0.299988,-0.600006c0,-0.099976 -2.800018,-5.299988 -7.300018,-5.299988c0,0 -0.099976,0 -0.099976,0c-2.200012,0.100006 -4.5,1.100006 -6,2.700012c-1,1 -2.100006,2.799988 -2,5.399994c0.199982,4.799988 3.299988,7.899996 7.799988,7.899996l0.100006,0c4.799988,0 7.299988,-4.100008 7.399994,-4.200014l0.299988,-0.5l0.60001,0.200012l14.200012,4.700014l-0.300018,0.799988c-0.099976,0.100006 -1.399994,3.5 -4.699982,7.100006c-3,3.199982 -8.300018,7.199982 -16.500004,7.5c-0.399994,0.100006 -0.700012,0.100006 -1,0.100006zm1.199982,-44.800019c-6.299988,0 -11.999998,2.200012 -16.099974,6.100006c-4,3.899994 -6.200012,9.399993 -6.200012,15.499999c0,5.399994 2.100006,10.899996 5.700012,14.899996c3.899994,4.399994 9.399992,6.700012 15.299986,6.700012c0.299988,0 0.600006,0 0.899994,0c12.399998,-0.5 18.000004,-10 19.399998,-12.800018l-12,-4.000002c-1.000004,1.300018 -3.699986,4.400026 -8.399998,4.400026l-0.100006,0c-5.399994,0 -9.099974,-3.80002 -9.399992,-9.500002c-0.100006,-2.5 0.700012,-4.700012 2.399992,-6.600006c1.800018,-1.999999 4.5,-3.200011 7.100006,-3.200011c4.5,-0.100006 7.5,3.899993 8.500004,5.499999l11.700012,-4.299987c-1.200012,-2.700012 -6.800018,-12.700012 -18.800022,-12.700012z" fill="#006838"/>
    </g>
    <g id="svg_10">
     <g id="svg_11">
      <path id="svg_12" d="m53.699997,40.449989c0,-1 0.399994,-1.800018 1.199982,-2.300018c0.700012,-0.399994 1.5,-0.599976 2.5,-0.599976c1.100006,0 2,0.299988 2.600006,0.799988c0.700012,0.5 1,1.200012 1,2.100006c0,0.699982 -0.199982,1.299988 -0.5,1.699982c-0.299988,0.400024 -0.699982,0.700012 -1.299988,1c-0.600006,0.200012 -1.200012,0.300018 -1.899994,0.300018c-1.100006,0 -2,-0.300018 -2.700012,-0.800018c-0.600006,-0.5 -0.899994,-1.199982 -0.899994,-2.199982zm1.399994,0c0,0.699982 0.200012,1.199982 0.700012,1.600006c0.399994,0.399994 1,0.5 1.699982,0.5c0.700012,0 1.200012,-0.200012 1.600006,-0.5c0.399994,-0.400024 0.700012,-0.900024 0.700012,-1.600006c0,-0.700012 -0.200012,-1.200012 -0.700012,-1.600006c-0.399994,-0.399994 -1,-0.5 -1.600006,-0.5c-0.699982,0 -1.199982,0.200012 -1.699982,0.5c-0.5,0.399994 -0.700012,0.899994 -0.700012,1.600006z" fill="#231F20"/>
     </g>
     <g id="svg_13">
      <path id="svg_14" d="m62.099991,41.649971l1.299988,-0.099976c0.100006,0.399994 0.300018,0.699982 0.600006,0.899994c0.300018,0.199982 0.800018,0.299988 1.399994,0.299988c0.600006,0 1.100006,-0.100006 1.400024,-0.299988c0.299988,-0.200012 0.399994,-0.399994 0.399994,-0.600006c0,-0.200012 -0.100006,-0.399994 -0.399994,-0.5c-0.200012,-0.100006 -0.600006,-0.200012 -1.400024,-0.299988c-1,-0.200012 -1.699982,-0.300018 -2,-0.5c-0.399994,-0.100006 -0.699982,-0.300018 -0.899994,-0.5c-0.199982,-0.200012 -0.299988,-0.5 -0.299988,-0.700012c0,-0.200012 0.100006,-0.5 0.199982,-0.700012c0.200012,-0.199982 0.400024,-0.399994 0.700012,-0.5c0.200012,-0.099976 0.5,-0.199982 0.799988,-0.299988c0.400024,-0.100006 0.700012,-0.100006 1.100006,-0.100006c0.600006,0 1.200012,0.100006 1.600006,0.200012c0.5,0.100006 0.800018,0.299988 1,0.5c0.200012,0.199982 0.399994,0.5 0.5,0.899994l-1.299988,0.100006c-0.100006,-0.300018 -0.200012,-0.5 -0.5,-0.700012c-0.300018,-0.199982 -0.700012,-0.199982 -1.200012,-0.199982c-0.600006,0 -1,0.099976 -1.299988,0.199982c-0.100006,-0.100006 -0.200012,0.100006 -0.200012,0.300018c0,0.099976 0.100006,0.199982 0.200012,0.299988c0.099976,0.100006 0.299988,0.200012 0.5,0.299988c0.099976,0 0.5,0.100006 1.199982,0.200012c0.899994,0.200012 1.600006,0.299988 2,0.399994c0.400024,0.100006 0.700012,0.300018 0.900024,0.5c0.199982,0.200012 0.299988,0.5 0.299988,0.800018c0,0.299988 -0.100006,0.599976 -0.400024,0.899994c-0.299988,0.299988 -0.599976,0.5 -1.099976,0.600006c-0.5,0.199982 -1,0.199982 -1.700012,0.199982c-1,0 -1.799988,-0.199982 -2.299988,-0.5c-0.600006,-0.100006 -1,-0.600006 -1.100006,-1.100006z" fill="#231F20"/>
     </g>
     <g id="svg_15">
      <path id="svg_16" d="m75.299973,41.249977l1.300018,0.100006c-0.100006,0.600006 -0.5,1.100006 -1.100006,1.5c-0.599976,0.399994 -1.299988,0.5 -2.200012,0.5c-1.099976,0 -1.899963,-0.200012 -2.599976,-0.700012c-0.700012,-0.5 -1,-1.199982 -1,-2.099976c0,-0.600006 0.100006,-1.100006 0.399994,-1.600006c0.300018,-0.5 0.700012,-0.800018 1.300018,-1c0.599976,-0.200012 1.199982,-0.300018 1.899963,-0.300018c0.900024,0 1.500031,0.200012 2.100037,0.5c0.5,0.300018 0.899963,0.700012 1,1.300018l-1.300018,0.100006c-0.100006,-0.400024 -0.299988,-0.700012 -0.699982,-0.800018c-0.300018,-0.199982 -0.700012,-0.299988 -1.100037,-0.299988c-0.699982,0 -1.199982,0.199982 -1.599976,0.5c-0.400024,0.299988 -0.600006,0.899994 -0.600006,1.600006c0,0.699982 0.199982,1.299988 0.600006,1.599976c0.399994,0.300018 0.899994,0.5 1.599976,0.5c0.500031,0 1,-0.099976 1.300018,-0.299988c0.399994,-0.299988 0.600006,-0.700012 0.699982,-1.100006z" fill="#231F20"/>
     </g>
     <g id="svg_17">
      <path id="svg_18" d="m77.699997,43.249977l0,-7.699982l1.299988,0l0,2.799988c0.600006,-0.5 1.400024,-0.799988 2.299988,-0.799988c0.600037,0 1.100037,0.099976 1.500031,0.199982c0.399994,0.200012 0.699982,0.399994 0.899994,0.700012c0.200012,0.299988 0.299988,0.699982 0.299988,1.199982l0,3.5l-1.299988,0l0,-3.5c0,-0.5 -0.100006,-0.799988 -0.400024,-1c-0.299988,-0.199982 -0.699982,-0.299988 -1.199982,-0.299988c-0.399994,0 -0.800018,0.100006 -1.100006,0.200012c-0.299988,0.099976 -0.599976,0.299988 -0.700012,0.599976c-0.099976,0.200012 -0.199982,0.600006 -0.199982,1l0,3.100006l-1.399994,0z" fill="#231F20"/>
     </g>
     <g id="svg_19">
      <path id="svg_20" d="m86.099991,36.649971l0,-1.099976l1.300018,0l0,1.099976l-1.300018,0zm0,6.600006l0,-5.600006l1.300018,0l0,5.600006l-1.300018,0z" fill="#231F20"/>
     </g>
     <g id="svg_21">
      <path id="svg_22" d="m89.499985,43.249977l0,-5.600006l1.200012,0l0,0.800018c0.599976,-0.600006 1.399994,-0.899994 2.5,-0.899994c0.5,0 0.899994,0.099976 1.299988,0.199982c0.400024,0.100006 0.700012,0.300018 0.900024,0.5c0.199982,0.200012 0.299988,0.399994 0.399994,0.700012c0,0.199982 0.100006,0.5 0.100006,0.899994l0,3.399994l-1.300018,0l0,-3.399994c0,-0.399994 -0.100006,-0.700012 -0.199982,-0.899994c-0.100037,-0.200012 -0.300018,-0.300018 -0.600006,-0.5c-0.300018,-0.100006 -0.600006,-0.200012 -0.899994,-0.200012c-0.600037,0 -1.100006,0.100006 -1.5,0.399994c-0.400024,0.300018 -0.600006,0.700012 -0.600006,1.5l0,3l-1.300018,0l0,0.100006z" fill="#231F20"/>
     </g>
     <g id="svg_23">
      <path id="svg_24" d="m102.999985,42.549995c-0.5,0.299988 -1,0.5 -1.399994,0.599976c-0.5,0.100006 -0.899994,0.200012 -1.5,0.200012c-0.899994,0 -1.5,-0.100006 -2,-0.399994c-0.5,-0.300018 -0.699982,-0.700012 -0.699982,-1.100006c0,-0.299988 0.099976,-0.5 0.299988,-0.700012c0.200012,-0.199982 0.399994,-0.399994 0.700012,-0.5c0.299988,-0.099976 0.599976,-0.199982 1,-0.299988c0.299988,0 0.699982,-0.100006 1.199982,-0.100006c1.100006,-0.100006 1.899994,-0.199982 2.399994,-0.299988c0,-0.100006 0,-0.200012 0,-0.200012c0,-0.399994 -0.099976,-0.699982 -0.399994,-0.799988c-0.300018,-0.200012 -0.799988,-0.300018 -1.5,-0.300018c-0.600006,0 -1.100006,0.100006 -1.399994,0.200012c-0.299988,0.200012 -0.5,0.399994 -0.700012,0.799988l-1.299988,-0.099976c0.100006,-0.400024 0.299988,-0.700012 0.599976,-1c0.300018,-0.200012 0.700012,-0.400024 1.200012,-0.600006c0.5,-0.100006 1.100006,-0.200012 1.799988,-0.200012c0.700012,0 1.200012,0.100006 1.600037,0.200012c0.399963,0.100006 0.699982,0.299988 0.899994,0.399994c0.199982,0.200012 0.299988,0.399994 0.399994,0.600006c0,0.199982 0.099976,0.5 0.099976,0.899994l0,1.299988c0,0.900024 0,1.400024 0.100037,1.700012c0.099976,0.200012 0.199982,0.5 0.299988,0.700012l-1.400024,0c-0.099976,-0.5 -0.199982,-0.700012 -0.299988,-1zm-0.099976,-2.100006c-0.5,0.100006 -1.200012,0.299988 -2.200012,0.399994c-0.5,0.100006 -0.899994,0.100006 -1.200012,0.200012c-0.200012,0.099976 -0.399994,0.199982 -0.5,0.299988c-0.099976,0.100006 -0.199982,0.299988 -0.199982,0.399994c0,0.300018 0.100006,0.5 0.399994,0.600006c0.299988,0.200012 0.700012,0.299988 1.200012,0.299988c0.5,0 1,-0.099976 1.399994,-0.199982c0.399994,-0.200012 0.699982,-0.399994 0.899994,-0.700012c0.100006,-0.199982 0.200012,-0.5 0.200012,-0.899994l0,-0.399994z" fill="#231F20"/>
     </g>
     <g id="svg_25">
      <path id="svg_26" d="m106.699997,43.249977l0,-1.100006l1.5,0l0,1.100006l-1.5,0z" fill="#231F20"/>
     </g>
     <g id="svg_27">
      <path id="svg_28" d="m110.499985,43.249977l0,-5.600006l1.200012,0l0,0.800018c0.599976,-0.600006 1.399994,-0.899994 2.5,-0.899994c0.5,0 0.899994,0.099976 1.299988,0.199982c0.400024,0.100006 0.700012,0.300018 0.900024,0.5c0.199982,0.200012 0.299988,0.399994 0.399994,0.700012c0,0.199982 0.100006,0.5 0.100006,0.899994l0,3.399994l-1.300018,0l0,-3.399994c0,-0.399994 -0.100006,-0.700012 -0.199982,-0.899994c-0.100037,-0.200012 -0.300018,-0.300018 -0.600006,-0.5c-0.300018,-0.100006 -0.600006,-0.200012 -0.899994,-0.200012c-0.600037,0 -1.100006,0.100006 -1.5,0.399994c-0.400024,0.300018 -0.600006,0.700012 -0.600006,1.5l0,3l-1.300018,0l0,0.100006z" fill="#231F20"/>
     </g>
     <g id="svg_29">
      <path id="svg_30" d="m124.299973,41.449989l1.400024,0.100006c-0.200012,0.599976 -0.600006,1 -1.200012,1.299988c-0.599976,0.299988 -1.299988,0.5 -2.200012,0.5c-1.099976,0 -2.099976,-0.299988 -2.699982,-0.799988c-0.699982,-0.5 -1,-1.200012 -1,-2.100006c0,-0.899994 0.300018,-1.700012 1,-2.200012c0.699982,-0.5 1.600006,-0.799988 2.600006,-0.799988c1,0 1.899994,0.299988 2.600006,0.799988s1,1.200012 1,2.100006c0,0.100006 0,0.100006 0,0.299988l-5.800018,0c0,0.600006 0.299988,1.100006 0.700012,1.400024c0.399994,0.299988 1,0.5 1.599976,0.5c0.500031,0 0.900024,-0.100006 1.200012,-0.300018c0.300018,-0.100006 0.600006,-0.399994 0.799988,-0.799988zm-4.399963,-1.5l4.399963,0c-0.099976,-0.5 -0.199982,-0.800018 -0.499969,-1.100006c-0.399994,-0.399994 -1,-0.5 -1.600006,-0.5c-0.600006,0 -1.100006,0.100006 -1.5,0.399994c-0.5,0.300018 -0.700012,0.700012 -0.799988,1.200012z" fill="#231F20"/>
     </g>
     <g id="svg_31">
      <path id="svg_32" d="m130.199982,42.449989l0.200012,0.799988c-0.400024,0.100006 -0.700012,0.100006 -0.999985,0.100006c-0.5,0 -0.900024,-0.100006 -1.100037,-0.200012c-0.299988,-0.099976 -0.499969,-0.299988 -0.599976,-0.399994c-0.100006,-0.199982 -0.200012,-0.5 -0.200012,-1.100006l0,-3.199982l-1,0l0,-0.700012l1,0l0,-1.399994l1.300018,-0.600006l0,1.899994l1.299973,0l0,0.700012l-1.299973,0l0,3.299988c0,0.300018 0,0.400024 0.100006,0.5c0,0.100006 0.099976,0.100006 0.199982,0.200012c0.100006,0 0.300018,0.100006 0.499985,0.100006c0.200012,0 0.399994,0 0.600006,0z" fill="#231F20"/>
     </g>
    </g>
    <g id="svg_33">
     <g id="svg_34">
      <path id="svg_35" d="m52.899979,10.249976c0,-1 0.300018,-1.699982 0.800018,-2.199982c0.399994,-0.400024 1,-0.600006 1.600006,-0.600006c0.699982,0 1.299988,0.199982 1.699982,0.699982c0.399994,0.5 0.700012,1.100006 0.700012,2c0,0.700012 -0.100006,1.200012 -0.300018,1.600006c-0.199982,0.399994 -0.5,0.700012 -0.799988,0.899994c-0.399994,0.200012 -0.799988,0.300018 -1.200012,0.300018c-0.699982,0 -1.299988,-0.200012 -1.699982,-0.700012c-0.600006,-0.399994 -0.800018,-1.100006 -0.800018,-2zm0.900024,0c0,0.700012 0.099976,1.200012 0.399994,1.5c0.299988,0.300018 0.600006,0.5 1.100006,0.5c0.399994,0 0.799988,-0.199982 1.099976,-0.5c0.300018,-0.299988 0.400024,-0.899994 0.400024,-1.600006c0,-0.699982 -0.100006,-1.199982 -0.400024,-1.5c-0.299988,-0.299988 -0.599976,-0.5 -1.099976,-0.5c-0.400024,0 -0.800018,0.200012 -1.100006,0.5c-0.300018,0.400024 -0.399994,0.900024 -0.399994,1.600006z" fill="#006838"/>
     </g>
    </g>
    <g id="svg_36">
     <g id="svg_37">
      <path id="svg_38" d="m58.599991,14.949988l0,-7.399994l0.799988,0l0,0.699982c0.200012,-0.199982 0.400024,-0.399994 0.600006,-0.600006c0.200012,-0.099976 0.5,-0.199982 0.800018,-0.199982c0.399994,0 0.799988,0.100006 1.099976,0.299988c0.300018,0.200012 0.600006,0.600006 0.700012,1c0.200012,0.399994 0.299988,0.899994 0.299988,1.399994c0,0.5 -0.099976,1 -0.299988,1.5c-0.200012,0.400024 -0.5,0.800018 -0.799988,1c-0.400024,0.200012 -0.700012,0.300018 -1.100006,0.300018c-0.300018,0 -0.5,-0.100006 -0.800018,-0.200012c-0.199982,-0.100006 -0.399994,-0.299988 -0.599976,-0.5l0,2.600006l-0.700012,0l0,0.100006zm0.799988,-4.700012c0,0.700012 0.100006,1.200012 0.400024,1.5c0.299988,0.300018 0.599976,0.5 1,0.5c0.399994,0 0.699982,-0.199982 1,-0.5c0.299988,-0.299988 0.399994,-0.899994 0.399994,-1.600006c0,-0.699982 -0.100006,-1.199982 -0.399994,-1.5c-0.300018,-0.299988 -0.600006,-0.5 -0.900024,-0.5c-0.399994,0 -0.699982,0.200012 -1,0.5c-0.399994,0.400024 -0.5,0.900024 -0.5,1.600006z" fill="#8E8E8E"/>
     </g>
     <g id="svg_39">
      <path id="svg_40" d="m67.499985,11.14997l0.900024,0.100006c-0.100037,0.5 -0.400024,1 -0.800018,1.300018c-0.399994,0.299988 -0.899994,0.399994 -1.399994,0.399994c-0.700012,0 -1.300018,-0.200012 -1.800018,-0.700012c-0.399994,-0.5 -0.599976,-1.100006 -0.599976,-2c0,-0.899994 0.199982,-1.600006 0.699982,-2.100006c0.399994,-0.5 1,-0.699982 1.700012,-0.699982c0.700012,0 1.200012,0.199982 1.700012,0.699982c0.399963,0.5 0.599976,1.200012 0.599976,2c0,0.100006 0,0.100006 0,0.200012l-3.899994,0c0,0.600006 0.200012,1 0.5,1.299988c0.299988,0.300018 0.600006,0.5 1.100006,0.5c0.299988,0 0.600006,-0.099976 0.799988,-0.299988c0.100006,0 0.299988,-0.299988 0.5,-0.700012zm-2.799988,-1.399994l2.799988,0c0,-0.399994 -0.099976,-0.799988 -0.299988,-1c-0.299988,-0.299988 -0.600006,-0.5 -1.100006,-0.5c-0.399994,0 -0.700012,0.100006 -1,0.399994c-0.299988,0.300018 -0.399994,0.600006 -0.399994,1.100006z" fill="#8E8E8E"/>
     </g>
     <g id="svg_41">
      <path id="svg_42" d="m69.400009,12.849982l0,-5.299988l0.799988,0l0,0.799988c0.399994,-0.600006 0.899994,-0.899994 1.600006,-0.899994c0.299988,0 0.600006,0.100006 0.799988,0.199982c0.300018,0.100006 0.399994,0.300018 0.600006,0.5c0.099976,0.200012 0.200012,0.400024 0.299988,0.700012c0,0.200012 0,0.5 0,0.899994l0,3.100006l-0.899994,0l0,-3.200012c0,-0.399994 0,-0.599976 -0.100006,-0.799988c-0.099976,-0.200012 -0.200012,-0.299988 -0.399994,-0.399994c-0.199982,-0.100006 -0.399994,-0.200012 -0.600006,-0.200012c-0.399994,0 -0.699982,0.100006 -0.899994,0.399994c-0.300018,0.200012 -0.399994,0.700012 -0.399994,1.400024l0,2.799988l-0.799988,0z" fill="#8E8E8E"/>
     </g>
    </g>
    <g id="svg_43">
     <g id="svg_44">
      <path id="svg_45" d="m77.199997,11.349982l0.799988,-0.100006c0,0.399994 0.200012,0.600006 0.400024,0.800018c0.199982,0.199982 0.5,0.299988 0.899963,0.299988c0.400024,0 0.700012,-0.100006 0.900024,-0.299988c0.200012,-0.200012 0.299988,-0.400024 0.299988,-0.600006c0,-0.200012 -0.099976,-0.399994 -0.299988,-0.5c-0.100006,-0.100006 -0.399994,-0.200012 -0.900024,-0.300018c-0.599976,-0.199982 -1.099976,-0.299988 -1.299988,-0.399994c-0.199982,-0.100006 -0.399994,-0.299988 -0.599976,-0.5c-0.100037,-0.199982 -0.200012,-0.5 -0.200012,-0.699982c0,-0.200012 0.099976,-0.5 0.200012,-0.700012c0.199982,-0.200012 0.299988,-0.399994 0.5,-0.5c0.099976,-0.100006 0.299988,-0.200012 0.5,-0.299988c0.199982,-0.100006 0.5,-0.100006 0.699982,-0.100006c0.399994,0 0.700012,0.100006 1,0.199982c0.300018,0.100006 0.5,0.300018 0.700012,0.5c0.100006,0.200012 0.199982,0.5 0.299988,0.800018l-0.800018,0.100006c0,-0.300018 -0.099976,-0.5 -0.299988,-0.600006c-0.199982,-0.200012 -0.399994,-0.200012 -0.799988,-0.200012c-0.399994,0 -0.700012,0.100006 -0.799988,0.200012c-0.200012,0.100006 -0.300018,0.299988 -0.300018,0.5c0,0.100006 0,0.199982 0.100006,0.299988c0.099976,0.100006 0.200012,0.200012 0.299988,0.200012c0.100006,0 0.300018,0.100006 0.799988,0.199982c0.600037,0.200012 1,0.300018 1.300018,0.400024c0.200012,0.099976 0.399994,0.299988 0.600006,0.5c0.099976,0.199982 0.200012,0.5 0.200012,0.799988c0,0.299988 -0.100037,0.600006 -0.200012,0.799988c-0.200012,0.300018 -0.399994,0.5 -0.700012,0.600006c-0.299988,0.100006 -0.699982,0.200012 -1.099976,0.200012c-0.700012,0 -1.200012,-0.100006 -1.5,-0.399994c-0.400024,-0.300018 -0.600037,-0.700012 -0.700012,-1.200012z" fill="#006838"/>
     </g>
    </g>
    <g id="svg_46">
     <g id="svg_47">
      <path id="svg_48" d="m82.099991,10.249976c0,-1 0.300018,-1.699982 0.800018,-2.199982c0.399963,-0.400024 1,-0.600006 1.599976,-0.600006c0.700012,0 1.300018,0.199982 1.700012,0.699982c0.399994,0.5 0.700012,1.100006 0.700012,2c0,0.700012 -0.100006,1.200012 -0.300018,1.600006c-0.199982,0.399994 -0.5,0.700012 -0.799988,0.899994c-0.399994,0.200012 -0.800018,0.300018 -1.200012,0.300018c-0.699982,0 -1.300018,-0.200012 -1.699982,-0.700012c-0.600037,-0.399994 -0.800018,-1.100006 -0.800018,-2zm0.800018,0c0,0.700012 0.099976,1.200012 0.399963,1.5c0.300018,0.300018 0.600037,0.5 1.100037,0.5c0.399994,0 0.799988,-0.199982 1.099976,-0.5c0.300018,-0.299988 0.400024,-0.899994 0.400024,-1.600006c0,-0.699982 -0.100006,-1.199982 -0.400024,-1.5c-0.299988,-0.299988 -0.599976,-0.5 -1.099976,-0.5c-0.400024,0 -0.800018,0.200012 -1.100037,0.5c-0.199982,0.400024 -0.399963,0.900024 -0.399963,1.600006z" fill="#8E8E8E"/>
     </g>
     <g id="svg_49">
      <path id="svg_50" d="m91.099991,12.849982l0,-0.799988c-0.399994,0.599976 -0.899994,0.899994 -1.600006,0.899994c-0.299988,0 -0.599976,-0.100006 -0.799988,-0.200012c-0.299988,-0.100006 -0.400024,-0.299988 -0.600006,-0.5c-0.100006,-0.199982 -0.199982,-0.399994 -0.299988,-0.699982c0,-0.200012 -0.100006,-0.5 -0.100006,-0.800018l0,-3.199982l0.899994,0l0,2.899994c0,0.5 0,0.799988 0.100006,0.899994c0.100006,0.200012 0.200012,0.399994 0.299988,0.600006c0.200012,0.100006 0.400024,0.199982 0.600006,0.199982s0.5,-0.099976 0.699982,-0.199982s0.400024,-0.300018 0.500031,-0.600006c0.100006,-0.200012 0.100006,-0.600006 0.100006,-1l0,-2.799988l0.899994,0l0,5.299988l-0.700012,0z" fill="#8E8E8E"/>
     </g>
     <g id="svg_51">
      <path id="svg_52" d="m93.199997,12.849982l0,-5.299988l0.799988,0l0,0.799988c0.200012,-0.399994 0.400024,-0.600006 0.5,-0.700012c0.200012,-0.099976 0.300018,-0.199982 0.5,-0.199982c0.299988,0 0.600006,0.100006 0.900024,0.299988l-0.300018,0.800018c-0.199982,-0.100006 -0.399994,-0.200012 -0.600006,-0.200012c-0.199982,0 -0.399994,0.100006 -0.5,0.200012c-0.099976,0.099976 -0.299988,0.299988 -0.299988,0.5c-0.100006,0.299988 -0.100006,0.699982 -0.100006,1l0,2.799988l-0.899994,0z" fill="#8E8E8E"/>
     </g>
     <g id="svg_53">
      <path id="svg_54" d="m99.699997,10.949988l0.799988,0.100006c-0.099976,0.599976 -0.299988,1.099976 -0.699982,1.399994c-0.399994,0.299988 -0.800018,0.5 -1.399994,0.5c-0.700012,0 -1.200012,-0.200012 -1.700012,-0.700012c-0.400024,-0.5 -0.600006,-1.199982 -0.600006,-2c0,-0.600006 0.100006,-1.100006 0.300018,-1.5c0.199982,-0.399994 0.5,-0.799988 0.799988,-1c0.399994,-0.199982 0.799988,-0.299988 1.200012,-0.299988c0.5,0 1,0.100006 1.299988,0.399994c0.299988,0.299988 0.599976,0.700012 0.700012,1.200012l-0.800018,0.199982c-0.100006,-0.399994 -0.199982,-0.600006 -0.399994,-0.799988c-0.200012,-0.200012 -0.399994,-0.300018 -0.700012,-0.300018c-0.399994,0 -0.799988,0.200012 -1,0.5c-0.299988,0.300018 -0.399994,0.800018 -0.399994,1.5c0,0.700012 0.100006,1.200012 0.399994,1.600006c0.300018,0.300018 0.600006,0.5 1,0.5c0.300018,0 0.600006,-0.100006 0.799988,-0.299988c0.200012,-0.200012 0.300018,-0.600006 0.400024,-1z" fill="#8E8E8E"/>
     </g>
     <g id="svg_55">
      <path id="svg_56" d="m104.699997,11.14997l0.899994,0.100006c-0.100006,0.5 -0.399994,1 -0.799988,1.300018c-0.399994,0.299988 -0.899994,0.399994 -1.399994,0.399994c-0.700012,0 -1.300018,-0.200012 -1.800018,-0.700012c-0.399994,-0.5 -0.600006,-1.100006 -0.600006,-2c0,-0.899994 0.200012,-1.600006 0.700012,-2.100006c0.399994,-0.5 1,-0.699982 1.700012,-0.699982c0.699982,0 1.199982,0.199982 1.699982,0.699982c0.399994,0.5 0.600006,1.200012 0.600006,2c0,0.100006 0,0.100006 0,0.200012l-3.799988,0c0,0.600006 0.199982,1 0.5,1.299988c0.299988,0.300018 0.599976,0.5 1.099976,0.5c0.300018,0 0.600006,-0.099976 0.799988,-0.299988c0.100037,0 0.300018,-0.299988 0.400024,-0.700012zm-2.799988,-1.399994l2.799988,0c0,-0.399994 -0.100006,-0.799988 -0.299988,-1c-0.300018,-0.299988 -0.600006,-0.5 -1.100037,-0.5c-0.399963,0 -0.699982,0.100006 -1,0.399994c-0.199982,0.300018 -0.399963,0.600006 -0.399963,1.100006z" fill="#8E8E8E"/>
     </g>
    </g>
    <g id="svg_57">
     <g id="svg_58">
      <path id="svg_59" d="m112.699997,10.949988l0.799988,0.100006c-0.099976,0.599976 -0.299988,1.099976 -0.699982,1.399994c-0.399994,0.299988 -0.800018,0.5 -1.399994,0.5c-0.700012,0 -1.200012,-0.200012 -1.700012,-0.700012c-0.400024,-0.5 -0.600006,-1.199982 -0.600006,-2c0,-0.600006 0.100006,-1.100006 0.300018,-1.5c0.199982,-0.399994 0.5,-0.799988 0.799988,-1c0.399994,-0.199982 0.799988,-0.299988 1.200012,-0.299988c0.5,0 1,0.100006 1.299988,0.399994c0.299988,0.299988 0.599976,0.700012 0.700012,1.200012l-0.800018,0.199982c-0.100006,-0.399994 -0.199982,-0.600006 -0.399994,-0.799988c-0.200012,-0.200012 -0.399994,-0.300018 -0.700012,-0.300018c-0.399994,0 -0.799988,0.200012 -1,0.5c-0.299988,0.300018 -0.399994,0.800018 -0.399994,1.5c0,0.700012 0.100006,1.200012 0.399994,1.600006c0.300018,0.300018 0.600006,0.5 1,0.5c0.300018,0 0.600006,-0.100006 0.799988,-0.299988c0.200012,-0.200012 0.300018,-0.600006 0.400024,-1z" fill="#006838"/>
     </g>
     <g id="svg_60">
      <path id="svg_61" d="m114.199997,12.849982l0,-7.299988l0.899994,0l0,2.599976c0.399994,-0.5 0.899994,-0.699982 1.5,-0.699982c0.399994,0 0.699982,0.100006 1,0.199982c0.300018,0.200012 0.5,0.400024 0.600006,0.600006c0.099976,0.300018 0.200012,0.700012 0.200012,1.200012l0,3.399994l-0.900024,0l0,-3.299988c0,-0.400024 -0.099976,-0.800018 -0.299988,-1c-0.200012,-0.200012 -0.399994,-0.300018 -0.799988,-0.300018c-0.300018,0 -0.5,0.100006 -0.700012,0.200012c-0.200012,0.100006 -0.400024,0.299988 -0.5,0.600006c-0.100006,0.199982 -0.100006,0.599976 -0.100006,1l0,2.799988l-0.899994,0z" fill="#006838"/>
     </g>
     <g id="svg_62">
      <path id="svg_63" d="m119.599991,6.64997l0,-1l0.899994,0l0,1l-0.899994,0zm0,6.200012l0,-5.299988l0.899994,0l0,5.299988l-0.899994,0z" fill="#006838"/>
     </g>
     <g id="svg_64">
      <path id="svg_65" d="m121.800003,12.849982l0,-5.299988l0.799988,0l0,0.799988c0.399994,-0.600006 0.899994,-0.899994 1.600006,-0.899994c0.299988,0 0.600006,0.100006 0.799988,0.199982c0.299988,0.100006 0.400024,0.300018 0.600006,0.5c0.100006,0.200012 0.200012,0.400024 0.300018,0.700012c0,0.200012 0,0.5 0,0.899994l0,3.100006l-0.900024,0l0,-3.200012c0,-0.399994 0,-0.599976 -0.099976,-0.799988c-0.100006,-0.200012 -0.200012,-0.299988 -0.400024,-0.399994c-0.200012,-0.100006 -0.399994,-0.200012 -0.599976,-0.200012c-0.400024,0 -0.700012,0.100006 -0.900024,0.399994c-0.199982,0.200012 -0.399994,0.700012 -0.399994,1.300018l0,2.899994l-0.799988,0z" fill="#006838"/>
     </g>
     <g id="svg_66">
      <path id="svg_67" d="m130.499969,12.249976c-0.299988,0.300018 -0.599976,0.5 -0.899994,0.600006c-0.300003,0.100006 -0.599991,0.200012 -0.899979,0.200012c-0.600006,0 -1,-0.100006 -1.299988,-0.400024c-0.300018,-0.299988 -0.400024,-0.599976 -0.400024,-1.099976c0,-0.300018 0.100006,-0.5 0.200012,-0.700012c0.099976,-0.200012 0.299988,-0.399994 0.399994,-0.5c0.200012,-0.100006 0.399994,-0.200012 0.600006,-0.299988c0.200012,0 0.399994,-0.100006 0.799988,-0.100006c0.699997,-0.100006 1.199997,-0.200012 1.499985,-0.300018c0,-0.099976 0,-0.199982 0,-0.199982c0,-0.399994 -0.099976,-0.600006 -0.200012,-0.800018c-0.199982,-0.199982 -0.499969,-0.299988 -0.999985,-0.299988c-0.399963,0 -0.699982,0.100006 -0.899963,0.200012c-0.200012,0.099976 -0.300018,0.399994 -0.400024,0.799988l-0.799988,-0.100006c0.099976,-0.399994 0.200012,-0.699982 0.399994,-0.899994c0.200012,-0.200012 0.399994,-0.399994 0.800018,-0.5c0.299988,-0.100006 0.699982,-0.200012 1.099976,-0.200012c0.400009,0 0.799973,0.100006 0.999985,0.200012c0.300018,0.100006 0.5,0.200012 0.600006,0.399994c0.100006,0.200012 0.199982,0.399994 0.300018,0.600006c0,0.200012 0,0.399994 0,0.799988l0,1.200012c0,0.799988 0,1.399994 0.099976,1.600006c0,0.199982 0.100006,0.399994 0.200012,0.600006l-0.899994,0c-0.200012,-0.300018 -0.300018,-0.600006 -0.300018,-0.800018zm-0.099976,-2c-0.300018,0.100006 -0.800018,0.200012 -1.400009,0.300018c-0.399994,0.099976 -0.599976,0.099976 -0.700012,0.199982c-0.099976,0.100006 -0.299988,0.200012 -0.299988,0.300018c-0.099976,0.099976 -0.099976,0.299988 -0.099976,0.399994c0,0.199982 0.099976,0.399994 0.299988,0.600006c0.200012,0.199982 0.399994,0.199982 0.799988,0.199982c0.299988,0 0.599991,-0.100006 0.900009,-0.199982c0.299988,-0.200012 0.399963,-0.400024 0.599976,-0.600006c0.100006,-0.200012 0.100006,-0.5 0.100006,-0.899994l0,-0.300018l-0.199982,0z" fill="#006838"/>
     </g>
    </g>
    <g id="svg_68">
     <path id="svg_69" d="m69.299973,16.849981c0.600037,0.100006 0.900024,0.399994 1,1.100006c-0.099976,0.699982 -0.399963,1 -1,1.100006l-2.499969,0l0,5l3.100006,0c0.5,0.099976 0.799988,0.399994 0.799988,1.099976c-0.100006,0.700012 -0.299988,1.100006 -0.799988,1.100006l-3.100006,0l0,6.600008c-0.100006,0.700012 -0.400024,1.100006 -1.100006,1.100006c-0.700012,0 -1.100006,-0.399994 -1.100006,-1.100006l0,-6.700014l-4.899994,0c-0.200012,3.5 -1.300018,5.900026 -3.399994,7.30002c-0.800018,0.600006 -1.400024,0.600006 -2,0.199982c-0.600006,-0.599976 -0.5,-1.099976 0.099976,-1.699984c1.900024,-1.600006 2.900024,-3.5 3,-5.800018l-3.399994,0c-0.600006,0 -0.899994,-0.399994 -1,-1.099976c0.100006,-0.700012 0.5,-1 1.100006,-1.100006l3.5,0l0,-5l-3,0c-0.600006,0 -0.899994,-0.399994 -1,-1.100006c0,-0.700012 0.399994,-1 1,-1.100006l14.699982,0l0,0.100006zm-4.699982,2.100006l-4.799988,0l0,5l4.799988,0l0,-5z" fill="#3DAA53"/>
     <path id="svg_70" d="m73.900009,27.149969c0.199982,-0.699982 0.599976,-1.099976 1.299988,-1.099976c0.700012,0.199982 1,0.599976 0.899994,1.299988c-0.5,2.5 -1,4.299988 -1.699982,5.29999c-0.400024,0.700012 -0.900024,0.900024 -1.600006,0.700012c-0.600006,-0.299988 -0.800018,-0.700012 -0.500031,-1.399996c0.800018,-1.399994 1.300018,-3 1.600037,-4.800018zm0.299988,-2.899994c-0.700012,-0.699982 -1.100006,-1.199982 -1.399994,-1.399994c-0.399994,-0.399994 -0.500031,-0.799988 -0.200012,-1.299988c0.399994,-0.400024 0.899994,-0.5 1.399994,-0.200012c0.900024,0.700012 1.5,1.299988 2,1.899994c0.299988,0.600006 0.200012,1 -0.199982,1.399994c-0.500031,0.300018 -0.899994,0.300018 -1.300018,-0.099976c0,0 -0.099976,-0.100006 -0.299988,-0.300018zm-1.100006,-6.5c-0.5,-0.399994 -0.5,-0.799988 -0.199982,-1.299988c0.399963,-0.499999 0.799988,-0.600005 1.399963,-0.300018c0.800018,0.5 1.500031,1 2.100037,1.700012c0.399994,0.600006 0.399994,1.100006 0,1.5c-0.5,0.399994 -0.900024,0.399994 -1.400024,-0.100006c-0.399994,-0.399994 -1,-0.899994 -1.899994,-1.5zm4,0.5c0,-1.100006 0.600006,-1.699982 1.899994,-1.699982l10.299988,0c0.600037,0.099976 0.900024,0.399994 1,1.099976c-0.099976,0.700012 -0.499969,1 -1.099976,1.100006l-3.900024,0c0.400024,0.200012 0.400024,0.600006 0.200012,1.100006l2.200012,0c1.299988,0 1.899994,0.399994 1.799988,1.200012l0,5.199982c0,1 -0.5,1.399994 -1.699982,1.399994l-2,0l0,4.900026c0,0.599976 -0.200012,1 -0.600006,1.099976c-0.299988,0.200012 -1,0.300018 -2.200012,0.300018c-0.799988,-0.100006 -1.199982,-0.399994 -1.299988,-1c0,-0.700012 0.399994,-1.100008 1.100006,-1.100008c0.600006,0.100006 0.799988,-0.100006 0.799988,-0.399994c0,0 0,-0.100006 0,-0.200012l0,-3.699982l-2.199982,0c-1.200012,0.099976 -1.700012,-0.400024 -1.700012,-1.400024l0,-4.799988c-0.100006,-1.100006 0.599976,-1.600006 1.899994,-1.5l1.300018,0c0.099976,-0.700012 0.299988,-1 0.5,-1.100006l-3.5,0c-0.600037,0 -0.900024,0.300018 -0.900024,0.899994l0,4.900024c-0.099976,5.399994 -1.099976,8.500002 -2.899994,9.399996c-1.199982,-0.100006 -1.399994,-0.800018 -0.800018,-2.000002c1.100037,-1.800018 1.700012,-4.300018 1.700012,-7.399994l0,-6.300018l0.100006,0zm3.600006,10.399994c0.299988,-0.599976 0.799988,-0.699982 1.399994,-0.5c0.600006,0.300018 0.700012,0.800018 0.5,1.400024c-0.600006,1.299988 -1.300018,2.399994 -2.399994,3.29999c-0.600006,0.5 -1.200012,0.5 -1.700012,0.200012c-0.5,-0.5 -0.399994,-0.900024 0.100006,-1.400026c0.899994,-1.099976 1.699982,-2.099976 2.100006,-3zm6.200012,-3.199982c0.299988,0 0.5,-0.100006 0.5,-0.399994l0,-0.5l-5.400024,0l0,0.5c-0.099976,0.299988 0.100006,0.399994 0.5,0.399994l4.400024,0zm-4.900024,-2.800018l5.400024,0l0,-0.5c0,-0.299988 -0.200012,-0.399994 -0.5,-0.399994l-4.5,0c-0.300018,0 -0.5,0.100006 -0.5,0.399994l0,0.5l0.099976,0zm5.900024,9.400026c-0.5,-0.900026 -1,-1.700014 -1.400024,-2.30002c-0.399994,-0.600006 -0.399994,-1.100006 0.200012,-1.5c0.5,-0.399994 1,-0.299988 1.599976,0.200012c0.700012,0.699982 1.400024,1.699982 2,3.199982c0.300018,0.700014 0.200012,1.100008 -0.199982,1.400026c-0.699982,0.399994 -1.199982,0.299988 -1.5,-0.200012c-0.199982,-0.100006 -0.399994,-0.399994 -0.699982,-0.799988z" fill="#3DAA53"/>
     <path id="svg_71" d="m99.599991,17.049994c0,-0.600006 0.399994,-0.900024 1.100006,-1c0.700012,0.099976 1.100006,0.399994 1.100006,0.899994l0,2.100006l5.600006,0c1.099976,0 1.599976,0.5 1.5,1.599976l0,6.400024c0,1.299988 -0.5,1.799988 -1.600037,1.699982l-5.499969,0l0,4.200014c-0.100006,0.600006 -0.399994,0.899994 -1.100006,1c-0.700012,-0.100006 -1.100006,-0.399994 -1.100006,-1l0,-4.100008l-5.399994,0c-1.200012,0.100006 -1.700012,-0.600006 -1.700012,-1.899994l0,-6.200012c-0.099976,-1.199982 0.400024,-1.799988 1.600006,-1.699982l5.5,0l0,-2zm0,9.599976l0,-5.299988l-4.300018,0c-0.399963,0 -0.499969,0.200012 -0.499969,0.5l0,4.299988c-0.100006,0.400024 0.100006,0.5 0.499969,0.5l4.300018,0zm7.100006,-4.799988c0,-0.399994 -0.200012,-0.5 -0.5,-0.5l-4.399994,0l0,5.299988l4.399994,0c0.399994,0.100006 0.5,-0.099976 0.5,-0.399994l0,-4.399994z" fill="#3DAA53"/>
     <path id="svg_72" d="m126.800003,16.849981c1.100006,0 1.699982,0.5 1.699982,1.5l0,13.600006c0,1.000002 -0.5,1.500002 -1.699982,1.399996l-13.200012,0c-1.100006,0 -1.699982,-0.5 -1.699982,-1.399996l0,-13.5c-0.100006,-1.200012 0.5,-1.700012 1.5,-1.700012l13.399994,0l0,0.100006zm-12.300018,2c-0.299988,0 -0.399994,0.100006 -0.399994,0.399994l0,11.800018c0,0.199982 0.100006,0.299988 0.399994,0.299988l11.600006,0c0.199982,0 0.300018,-0.100006 0.300018,-0.399994l0,-11.800018c0,-0.199982 -0.100037,-0.299988 -0.400024,-0.299988l-11.5,0zm1,3.100006c-0.599976,0 -0.899994,-0.399994 -0.899994,-0.899994c0,-0.600006 0.300018,-0.900024 0.800018,-1l9.5,0c0.599976,0.099976 0.899994,0.399994 0.899994,0.899994c-0.100006,0.600006 -0.399994,0.899994 -0.899994,1l-3.900024,0l0,1.799988l3.5,0c0.5,0.100006 0.799988,0.399994 0.799988,0.899994c0,0.600006 -0.299988,0.900024 -0.799988,1l-3.599976,0l0,2.200012l1.799988,0c-0.200012,-0.200012 -0.400024,-0.399994 -0.700012,-0.799988c-0.299988,-0.400024 -0.199982,-0.800018 0.200012,-1.100006c0.5,-0.300018 0.899994,-0.300018 1.200012,0.100006c0.899963,0.799988 1.199982,1.399994 0.899963,1.699982l0.500031,0c0.600006,0.100006 0.899994,0.399994 0.899994,1c0,0.600006 -0.299988,0.899994 -0.799988,1l-9.800018,0c-0.5,0 -0.800018,-0.399994 -0.800018,-1c0,-0.600006 0.300018,-0.899994 0.800018,-1l3.600006,0l0,-2.199982l-3.5,0c-0.5,0 -0.700012,-0.400024 -0.799988,-1c0,-0.600006 0.299988,-0.900024 0.799988,-0.900024l3.5,0l0,-1.799988l-3.200012,0l0,0.100006z" fill="#3DAA53"/>
     <path id="svg_73" d="m136.699982,19.049994c0.899994,0.099976 1.100006,0.799988 0.599976,2.099976c-0.299988,0.700012 -0.699982,1.600006 -1.199982,2.600006c-0.199982,0.300018 -0.299988,0.5 -0.299988,0.5l0,0.800018c0.399994,-0.5 0.899994,-0.600006 1.499969,-0.200012c0.100037,0.100006 0.300018,0.299988 0.500031,0.5c0.399994,0.299988 0.699982,0.600006 1,1.100006c0.399994,0.600006 0.399994,1.100006 0,1.5c-0.500031,0.399994 -0.899994,0.399994 -1.399994,-0.100006c-0.200012,-0.200012 -0.600006,-0.700012 -1.300018,-1.399994c0.5,0.5 0.399994,0.399994 -0.199982,-0.300018l0,7.000002c-0.100006,0.5 -0.400024,0.800018 -1,0.800018c-0.700012,-0.100006 -1,-0.300018 -1.100006,-0.800018l0,-6.199984c-0.300018,0.399994 -0.700012,0.699982 -1.200012,1.100006c-0.600006,0.5 -1.100006,0.399994 -1.5,-0.100006c-0.399994,-0.600006 -0.299988,-1.100006 0.199982,-1.600006c1.500031,-1.399994 2.700012,-2.899994 3.600037,-4.5c0.299988,-0.5 0.199982,-0.799988 -0.200012,-0.799988l-2.799988,0c-0.5,0 -0.800018,-0.400024 -0.800018,-1.100006c0,-0.600006 0.300018,-0.899994 0.800018,-1l2.799988,0c-0.5,-0.300018 -1,-0.800018 -1.5,-1.5c-0.299988,-0.5 -0.299988,-1 0.099976,-1.399994c0.500031,-0.400023 0.900024,-0.400023 1.400024,0c0.599976,0.599976 1,1.099976 1.299988,1.5c0.200012,0.699982 0,1.199982 -0.5,1.399994l1.200012,0l0,0.100006zm5.100006,-2.200012c0,-0.5 0.399994,-0.799988 1.100006,-0.799988c0.699982,0.099976 1,0.299988 1.099976,0.799988l0,3.200012l3.400024,0c0.5,0.099976 0.799988,0.399994 0.799988,1.099976c-0.099976,0.700012 -0.299988,1 -0.799988,1.100006l-3.400024,0l0,9l3.600006,0c0.699982,0.100006 1.000031,0.399994 1.100006,1.000002c-0.099976,0.700012 -0.400024,1 -1.100006,1.100006l-9.799988,0c-0.600006,-0.100006 -0.899994,-0.399994 -0.899994,-1.100006c0,-0.600008 0.399963,-0.899996 0.899994,-1.000002l4.100006,0l0,-9l-3.300018,0c-0.600006,0 -0.899994,-0.399994 -0.899994,-1.100006c0,-0.699982 0.299988,-1 0.799988,-1.099976l3.300018,0l0,-3.200012z"/>
     <path id="svg_74" d="m166.499969,16.749975c0.799988,0.100006 1.200012,0.399994 1.299988,1.100006c0,0.700012 -0.400024,1.100006 -1.200012,1.100006l-13,0c-0.399963,0 -0.599976,0.199982 -0.599976,0.600006l0,11.099976c0,0.400024 0.200012,0.600006 0.599976,0.600006l12.799988,0c0.800049,0.100006 1.300049,0.399994 1.400024,1.000002c-0.099976,0.700012 -0.5,1.100006 -1.299988,1.100006l-13.700012,0c-1.299988,0 -2,-0.5 -2,-1.700014l0,-13c-0.099976,-1.299988 0.5,-2 1.700012,-1.899994l14,0zm-3.899963,3.300018c0.399963,-0.700012 0.899963,-0.900024 1.699951,-0.600006c0.600037,0.299988 0.700012,0.799988 0.5,1.5c-0.5,1.299988 -1.299988,2.699982 -2.399963,4.199982c1.299988,1.100006 2.299988,2.100006 3,3c0.5,0.700012 0.5,1.200012 0,1.700012c-0.600037,0.5 -1.200012,0.399994 -1.700012,-0.100006c-1,-1.100006 -2,-2 -2.799988,-2.699982c-1.700012,1.599976 -3.200012,2.599976 -4.600037,3.199982c-0.799988,0.300018 -1.299988,0.200012 -1.699951,-0.5c-0.300049,-0.699982 0,-1.199982 0.699951,-1.600006c1.700012,-1 3,-1.899994 4,-2.799988c-0.699951,-0.600006 -2,-1.5 -4,-3c-0.5,-0.5 -0.5,-1 -0.099976,-1.600006c0.5,-0.5 1,-0.5 1.700012,-0.199982c2.099976,1.399994 3.399963,2.299988 4,2.899994c0.599976,-1.200012 1.200012,-2.300018 1.700012,-3.399994z"/>
    </g>
   </g>
  </g>
 </g>
</svg>